<svg version="1.1" id="logo" xmlns="http://www.w3.org/2000/svg" x="0" y="0" viewBox="0 0 485 116" xml:space="preserve"><path d="M9.8 85.2s-2 .1-2.9 1.5c-.8 1.2-1 2.8.5 4.3.5.5 1.4.9 2.3 1 0 0 19.9 1.8 37.8-17.1 0 0 29.8-32.4 35-36.2 0 0 10.4-8.8 9.2-3.2 0 0-3 10-1.8 33 0 0-14.2 2.5-14 5 0 0-.4 2.9 5.7.2 0 0 13.2-3.4 21.4-4 0 0 2.7-1.3-.4-2.8 0 0-1.8-.7-7.1.6 0 0-.9.5-.9-2.9 0 0-.8-29.7 4.4-39.2 0 0 1.2-4.6-5.9-1.8 0 0-8.3 3.4-18.6 15.9 0 0-24.4 31-39.4 39 0 0-8.1 5.2-17.8 6.3-1.2.1-1.7.2-3 .2.2.2-3.7 0-4.5.2z"/><path d="M89.6 71s-1.3.9-2.2 2.2c-.1.2-.7.8-.9.9-.8.7-.6 1.3-.4 1.5 0 0 .6 1 3 1.7 0 0 2.8.5 3.8 3.2 0 0 3.1 4.2 3.3 5.5 0 0 .4 2.9-.2 3.7 0 0-1.6 1.3-3.3-2.7 0 0-3.9-8.6-13.4-11.2 0 0-6.3-1.4-2.2-3.7.1 0 9.8-2.2 12.5-1.1z"/><path d="M88.2 73.2s1.2-.5 2.1.1c.2.2.4.6.5.7.1.3.6 1.6.6 3.5 0 0 0 .2-.2.2-.2.1-.6.1-1.1-.1l1.3 3.3 2.1 2.2 2.9 4.3s-1-13.1-.8-17l-7.3-.2-2.8 2.1v1.4l.7.8c-.1.1.9-1 2-1.3zM109.2 62.6s-3.9 6.2-2.2 9.2c0 0 .9 2.9 4.4 1.8 0 0 4.1-1 2.4 3.5 0 0-2.2 7 4.2 6.4 0 0 5.2-.4 4.9-3.1 0 0 0-2.4-4-2 0 0-3.5.8-2-3.8 0 0 1.5-3.2.4-4.2 0 0-.7-1.4-5.1-.2 0 0-3.7.8-2.8-2.7 0-.1 1.4-6.1-.2-4.9zM137.6 31.2s-2.8 1.2-3.9 3.6c0 0-1.8 3.1 1.4 4.8 0 0 3.3 1.5 4.9-.6 0 0 2.2-3.8 0-7.5-.1 0-.6-1-2.4-.3zM133.2 60.2s-8.3.1-8.8 7.7c0 0-.3 8.2 12.5 8.9h.2s6.5-.1 14-1.2c0 0 1.7 1.3 5.6 1.1 0 0 3.4.1 5.5-2.5 0 0 2.2 3 6.1 3 0 0 5 .4 9.1-2.6 0 0 .4-1.4-2.5-.2 0 0-8.5 1.4-8.9-2.2 0 0-.2-2.6.7-4.8 0 0 1-2.2-.9-4.1l-3.1 2.1s-1.8 7.3-5 8.5c0 0-5.1 2.1-4.2-3.5.1-.4.2-1.1.5-1.6 0 0 1.8-4.9 6.8-5.1 0 0 2.4-.3 1.7 2.7l3.7-2.3s0-1.7-5.4-2c0 0-5.5-.5-9.2 3.2 0 0-4.1 4.4-1.8 8 0 0 .6.6-2.4.9 0 0-12 1.2-15.3-2 0 0-5.7-4.1-.7-8.6 0 0 1.2-1.2 2.3-1.4 0 0 .7-.1.6-1-.2-.6-.4-1-1.1-1z"/><path d="M180.5 64.1s-5.5.2-6.5 1.3c0 0-1.1.9 1.1 1.1 0 0 1.1.4 1.5 2.8 0 0 1.9 5-3.8 5.4l3.9.5s.3-.3 1.1-.4c0 0 .2.8 1.8 1.8.1 0 2.1 1.3 5.7-.2 0 0 1.8-.9 3.9-3.8 0 0 1.5-1.7 1.6-.3 0 0 .1 2 2.1 2.8 0 0 3.6 2.4 14-1.1 0 0 2.8-2.1-1.6-1.4 0 0-8.7 1.5-9.1-2 0 0-.2-.9.2-2.3 0 0 1.2-3.9-.3-3.9 0 0-4.4-.6-9.2 6.9 0 0-.7 1.1-1.5 1-.4 0-.7-.4-.7-1.7 0 0 .2-3.4.9-4.3 0 0 1-1.6-.8-1.9-.1-.1-2-.4-4.3-.3z"/><path d="M206.6 74s1.3 2.5 6.6 2.6c0 0 5.1-.1 7.8-3.5 0 0 4.2 3.4 8.1 2.9 0 0 6.8.1 9.5-7.3 0 0 .4-1.2.2-1.8 0 0-.4-.8-1.1-.1-.2.2-.3.4-.6.8 0 0-2 4.6-6.3 4.9 0 0-5.6.1-5.3-2.9 0 0 .4-6.6-1.3-8.1-.4-.4-1.9-1.3-2.7-.3-.4.4-.5 1.2-.5 2.7 0 0 .6 6.4-3.7 8.3 0 0-5.3 2.2-6.2-1.5 0 0-.8-3.8 2.2-6.8 0 0 2.5-2.4 5.6-2.1 0 0 1.7.2 2 1.9l2.6-2.6s-1.4-1.1-5.6-1c.5 0-5.9-.1-9.3 5 0 0-1.8 2.3-1.9 5.4v1.4s.1.3-1.4.5l1.3 1.6zM295.3 21s-21.7-.7-38.2 27c0 0-12.3 20.5 0 32.8.4.2 8.8 7.8 23.8 2.7 0 0 19.9-6.6 30.3-14.8 0 0 2-.6 2.2 4.3v10.5l3.2-1.2V65.1s-.3-3.5-3.5-1.8c0 0-20 13.8-33 15.8 0 0-18.8 4.2-21.2-10.1 0 0-4.5-16.4 12.9-32.8 0 0 8.6-10.2 24.6-8.8 0 0 8.2.8 11.9 5.9 0 0 3.1 3.2 6.1 1.1 0 0 2-1.7.4-4.6 0 .1-5.9-9.2-19.5-8.8z"/><path d="M303.9 85.8s13.2-4.5 18.6-5.2c0 0 1.7-.5 2.1 1 0 0 .6 1.5-1.2 2l-6.8 1.5s-9.3 2.6-9.8 3.2c0 0-2 1.2.6 3.3l3.6 3.3s1.5 1.1 2.2-.9v-8.7l3.3-1.1v20.3s0 1.1-1.3 1.4c0 0-1 .4-2.6-1.3l-12.5-13.2s-1.8-2.4.8-4.2c.2 0 1.8-1 3-1.4zM327.2 61.3s-3.9 6.2-2.2 9.2c0 0 .9 2.9 4.4 1.8 0 0 4.1-1 2.4 3.5 0 0-2.2 7 4.2 6.4 0 0 5.2-.4 4.9-3.1 0 0 0-2.4-4-2 0 0-3.5.8-2-3.8 0 0 1.5-3.2.4-4.2 0 0-.7-1.4-5.1-.2 0 0-3.7.8-2.8-2.7 0-.1 1.4-6.1-.2-4.9zM344.5 74.2s1.7 1.3 5.6 1.1c0 0 3.4.1 5.5-2.5 0 0 2.2 3 6.1 3 0 0 5 .4 9.1-2.6 0 0 .4-1.4-2.5-.2 0 0-8.5 1.4-8.9-2.2 0 0-.2-2.6.7-4.8 0 0 1-2.2-.9-4.1l-3.1 2.1s-1.8 7.3-5 8.5c0 0-5.1 2.1-4.2-3.5.1-.4.2-1.1.5-1.6 0 0 1.8-4.9 6.8-5.1 0 0 2.4-.3 1.7 2.7l3.7-2.3s0-1.7-5.4-2c0 0-5.5-.5-9.2 3.2 0 0-4 4-2.4 8.3.1-.2.5.9 1.9 2z"/><path d="M374 62.7s-5.5.2-6.5 1.3c0 0-1.1.9 1.1 1.1 0 0 1.1.4 1.5 2.8 0 0 1.9 5-3.8 5.4l3.9.5s.3-.3 1.1-.4c0 0 .2.8 1.8 1.8.1 0 2.1 1.3 5.7-.2 0 0 1.8-.9 3.9-3.8 0 0 1.5-1.7 1.6-.3 0 0 .1 2 2.1 2.8 0 0 3.6 2.4 14-1.1 0 0 2.8-2.1-1.6-1.4 0 0-8.7 1.5-9.1-2 0 0-.2-.9.2-2.3 0 0 1.2-3.9-.3-3.9 0 0-4.4-.6-9.2 6.9 0 0-.7 1.1-1.5 1-.4 0-.7-.4-.7-1.7 0 0 .2-3.4.9-4.3 0 0 1-1.6-.8-1.9-.1-.1-2.1-.4-4.3-.3z"/><path d="M399.7 71s.4-6.4 9.9-7.4c0 0 5.1-.5 7.8 2.2 0 0-2.8-20.6 1.5-33.9-.3.9 5.5-21 17.6-24.2 0 0 1.6-.4 2.6.4l-3.8 3.3s-8.8 5.1-12.3 21.8c0 0-3.5 14.9-.5 30.1 0 0 0 1 1.3.3l-1.6 4.8-7.9 2.3s.8-4-4-4c0 0-4.1 0-3.8 4.1 0 0 .2 2.2 4 1.9 0 0 3.3-.2 4-2.4 0 0 7.5-2.1 7.8-2.1s1.2 3.2 1.2 3.2l-2.8 2c-.4-.3-3.3-.6-4.6.3 0 0-1.5 1.4-7 1.8 0 0-7.4.7-9.3-3.2-.1.4-.6-1-.1-1.3z"/><path d="M434.1 12.1s3.2-2.3 4.2 1.2c0 0 2.7 7.7-2.3 24.5 0 0-7 19.2-14.2 25.9l-3.6 6.5 1.2 2.9s3.4 2.5 9.9 2.8c0 0 10 .5 16.2-3.9 0 0 .8-2.2-3.9-.2 0 0-12.8 3.1-17.2-.4 0 0-3.1-1.5-1.4-4 0 0 11.5-13.1 16.4-28.6 0 0 7.5-21.5.4-29.9 0 0-1.2-1.1-2.5-1 0 0-1.3-.4-4.4 1.4l1.2 2.8z"/><path d="M443 71.3s1.5 0 1.3-1.5c0 0-4.1-3.7 1.5-10.5 0 0 4.8-4.7 9.6-1.5 0 0 .5.2.7.9.2.4.2.8.2 1.4 0 0-1.1 1.9-2.7 1.1 0 0-2.8-2-4.9.2 0 0-2.5 2.7.2 3.9 0 0 2.3.6 3.6-2.2 0 0 1.4-1.8-.1-2.5l3.2-2.5s2 1.3 1.6 4.5c0 0-.5 5-5.8 6.6 0 0-.8.7 1.7 1.4 0 0 10.8 3.9 18.1-.7 0 0 1.8-1.3 2.9-.7 0 0 1.4 1.1-1.5 2.9 0 0-5.9 5.4-21.9 1 0 0-3.2-1.2-7.4.3l-1.7-.8 1.4-1.3z"/></svg>